<?xml version="1.0" standalone="no"?>
<!DOCTYPE svg PUBLIC "-//W3C//DTD SVG 20010904//EN" "http://www.w3.org/TR/2001/REC-SVG-20010904/DTD/svg10.dtd">
<svg version="1.0" xmlns="http://www.w3.org/2000/svg"
 width="100%" height="100%" viewBox="1040 415 740 740"
 preserveAspectRatio="xMidYMid meet">

<g transform="translate(0.000000,1504.000000) scale(0.100000,-0.100000)"
fill="#000000" stroke="none"> 
<path d="M14010 10792 c-25 -10 -63 -28 -84 -42 -22 -14 -53 -34 -71 -45 -17
-11 -47 -30 -66 -42 -19 -13 -38 -23 -42 -23 -5 0 -23 -10 -40 -22 -18 -13
-48 -31 -67 -40 -19 -10 -57 -31 -85 -46 -93 -53 -110 -62 -121 -62 -7 0 -41
-17 -75 -38 -35 -22 -81 -44 -101 -51 -20 -7 -42 -19 -48 -27 -7 -7 -18 -14
-26 -14 -14 0 -52 -15 -139 -56 -27 -13 -80 -35 -117 -49 -38 -13 -76 -29 -85
-34 -33 -17 -128 -51 -142 -51 -7 0 -25 -6 -39 -14 -42 -22 -266 -94 -337
-108 -27 -6 -57 -14 -66 -18 -9 -5 -34 -11 -55 -15 -35 -6 -163 -31 -359 -70
-98 -20 -205 -33 -385 -46 -85 -6 -163 -13 -175 -15 -58 -11 -75 -16 -75 -25
0 -5 -11 -9 -25 -9 -19 0 -32 -12 -58 -52 -31 -50 -34 -62 -50 -218 -9 -91
-19 -196 -22 -235 -3 -38 -8 -113 -12 -165 -9 -129 -10 -601 -1 -675 5 -33 12
-125 18 -204 6 -79 15 -175 20 -215 6 -39 15 -107 21 -151 45 -353 104 -647
159 -790 8 -20 38 -138 47 -185 3 -14 13 -44 24 -67 10 -24 19 -49 19 -57 0
-7 11 -38 24 -67 13 -30 41 -94 61 -144 21 -49 74 -163 117 -253 43 -89 78
-166 78 -171 0 -5 4 -11 8 -13 5 -1 30 -39 57 -83 121 -202 233 -362 315 -455
8 -9 31 -36 50 -61 63 -81 277 -300 378 -387 30 -26 75 -67 101 -92 26 -25 63
-56 82 -70 18 -14 52 -42 75 -63 23 -20 46 -37 51 -37 5 0 18 -8 29 -18 10 -9
42 -33 70 -52 28 -19 85 -59 127 -87 42 -29 78 -53 81 -53 8 0 110 -62 116
-71 3 -3 15 -9 27 -13 13 -4 29 -13 35 -20 12 -11 49 -31 176 -95 26 -13 49
-26 52 -30 7 -9 225 -111 239 -111 6 0 11 -4 11 -10 0 -5 19 -14 42 -21 50
-13 132 -50 136 -61 2 -5 8 -5 13 -2 6 3 15 1 22 -4 7 -5 44 -19 84 -31 72
-21 73 -21 130 -2 32 10 73 22 91 26 17 4 32 11 32 15 0 5 16 12 35 16 19 3
39 12 46 20 6 8 19 14 27 14 9 0 50 15 92 34 41 18 86 39 100 45 14 6 32 15
40 20 14 9 93 49 255 129 39 19 72 38 75 41 3 4 28 20 55 36 28 17 59 35 70
42 11 6 34 19 52 28 18 9 37 23 44 31 6 8 18 14 26 14 7 0 16 7 19 15 4 8 12
15 19 15 8 0 20 7 28 15 8 8 53 40 99 71 45 31 99 71 118 89 19 17 53 45 75
61 79 58 180 150 335 305 162 163 240 247 240 259 0 5 9 15 20 22 11 7 20 18
20 25 0 7 4 13 9 13 4 0 44 50 87 111 125 175 149 212 163 247 7 17 16 32 20
32 4 0 15 17 26 38 11 20 26 43 32 50 7 7 13 19 13 27 0 7 4 15 9 17 5 2 27
41 50 88 23 47 45 92 50 100 16 25 97 202 119 260 50 133 72 187 86 215 9 17
16 38 16 47 0 10 6 35 14 55 7 21 19 56 25 78 6 22 18 67 27 100 37 138 56
203 70 247 9 26 19 71 23 100 5 29 15 89 24 133 21 108 36 225 56 425 6 63 16
138 21 165 5 28 12 109 15 180 3 72 10 197 16 279 6 82 8 187 5 235 -3 47 -8
154 -11 236 -7 151 -15 261 -35 479 -14 153 -43 220 -111 252 -54 27 -77 31
-287 49 -198 18 -332 34 -343 40 -4 3 -55 12 -113 20 -57 8 -124 21 -148 29
-24 8 -70 18 -103 22 -33 4 -63 11 -66 16 -3 4 -30 12 -60 17 -52 9 -193 52
-234 72 -11 5 -42 15 -70 23 -57 16 -215 71 -260 90 -57 26 -163 66 -173 66
-5 0 -15 6 -21 14 -6 7 -24 16 -39 19 -30 6 -120 48 -167 77 -16 10 -36 19
-44 19 -7 1 -33 15 -58 31 -24 17 -49 30 -56 30 -7 0 -28 9 -47 20 -19 11 -55
29 -79 41 -24 11 -49 25 -55 30 -23 20 -130 80 -152 85 -12 3 -30 14 -40 25
-9 10 -21 19 -26 19 -5 0 -39 20 -76 45 -37 25 -74 45 -82 45 -8 0 -24 7 -34
15 -25 19 -69 18 -126 -3z m126 -502 c21 -16 44 -30 51 -30 6 0 18 -6 25 -14
8 -7 29 -22 47 -32 18 -11 53 -30 77 -44 24 -14 108 -58 186 -98 79 -41 148
-77 153 -82 6 -4 26 -11 45 -15 19 -4 46 -16 59 -26 13 -11 30 -19 38 -19 8 0
27 -8 41 -19 15 -10 41 -22 59 -25 17 -4 33 -13 36 -19 3 -7 29 -19 58 -26 30
-8 72 -22 94 -33 71 -35 332 -127 391 -137 32 -6 69 -18 83 -28 14 -9 52 -22
86 -29 75 -16 158 -38 210 -57 22 -8 110 -25 195 -37 85 -12 162 -26 170 -30
15 -8 77 -16 185 -25 113 -9 219 -25 229 -35 29 -29 31 -992 2 -1225 -5 -41
-31 -231 -46 -340 -29 -203 -98 -521 -124 -573 -7 -15 -16 -45 -20 -67 -3 -22
-17 -69 -30 -105 -13 -36 -31 -92 -41 -125 -9 -33 -25 -79 -36 -102 -10 -24
-19 -47 -19 -52 0 -11 -74 -166 -88 -184 -4 -7 -25 -50 -46 -97 -21 -47 -42
-87 -45 -90 -4 -3 -17 -25 -30 -50 -12 -25 -45 -83 -72 -129 -27 -46 -49 -87
-49 -92 0 -4 -4 -9 -9 -11 -6 -1 -35 -40 -65 -86 -123 -184 -437 -533 -611
-678 -83 -70 -192 -157 -232 -187 -21 -15 -59 -43 -86 -62 -26 -19 -51 -35
-56 -35 -5 0 -14 -7 -21 -15 -7 -8 -37 -30 -67 -47 -31 -18 -72 -43 -92 -56
-20 -12 -43 -25 -51 -29 -8 -3 -33 -18 -55 -33 -46 -30 -300 -156 -390 -193
-162 -67 -169 -69 -209 -64 -23 2 -67 16 -98 31 -31 14 -60 26 -64 26 -4 0
-67 29 -139 65 -73 36 -137 65 -144 65 -6 0 -11 5 -11 10 0 6 -6 10 -13 10 -8
0 -42 18 -76 40 -34 22 -65 40 -69 40 -4 0 -25 14 -46 30 -22 17 -43 30 -47
30 -8 0 -98 58 -109 70 -3 3 -43 31 -90 63 -47 31 -96 67 -110 79 -14 13 -41
34 -60 48 -123 84 -336 280 -470 430 -36 41 -74 83 -85 94 -11 12 -29 35 -41
51 -26 39 -62 82 -91 111 -13 12 -23 26 -23 33 0 6 -4 11 -8 11 -5 0 -17 16
-28 35 -10 19 -22 35 -26 35 -5 0 -8 5 -8 11 0 5 -24 47 -53 92 -30 45 -71
111 -92 147 -21 36 -46 76 -55 90 -17 26 -114 224 -144 295 -10 22 -24 54 -31
70 -31 65 -87 229 -102 295 -3 14 -9 27 -13 30 -4 3 -21 59 -39 125 -18 66
-39 134 -47 150 -7 17 -20 75 -29 130 -9 55 -22 138 -30 185 -43 254 -76 544
-86 760 -15 320 -2 903 21 940 7 11 56 18 245 36 39 3 90 10 115 15 60 13 207
37 300 50 41 5 109 21 150 34 41 13 104 31 140 40 64 16 90 24 160 50 19 7 49
15 65 18 44 7 144 42 290 102 72 29 143 56 159 60 15 3 94 37 173 75 80 39
149 70 154 70 5 0 44 19 86 41 88 47 250 135 273 149 8 5 27 15 41 22 47 23
163 91 188 110 32 24 41 23 87 -12z"/>
<path d="M13040 9145 c-41 -6 -91 -17 -110 -23 -19 -7 -57 -19 -84 -27 -81
-26 -209 -91 -274 -140 -97 -72 -264 -246 -304 -315 -67 -116 -129 -263 -142
-335 -4 -22 -11 -44 -16 -50 -16 -19 -32 -210 -26 -295 9 -111 27 -242 37
-255 4 -5 10 -28 14 -50 4 -22 18 -64 31 -93 13 -29 24 -56 24 -60 0 -15 69
-172 95 -219 16 -27 38 -68 51 -91 12 -24 31 -53 41 -65 11 -12 29 -38 41 -57
55 -92 280 -377 415 -524 98 -107 316 -325 446 -444 52 -48 108 -100 126 -117
18 -16 54 -48 80 -70 26 -22 61 -52 79 -67 17 -15 34 -28 38 -28 4 0 14 -7 22
-16 28 -27 148 -124 155 -124 4 0 21 -13 38 -28 52 -49 150 -109 203 -127 72
-24 130 -9 235 60 46 30 85 59 87 64 2 4 21 20 43 34 58 38 263 206 355 291
14 13 65 59 115 102 181 159 531 524 623 649 4 6 32 40 62 77 30 37 69 86 85
109 17 23 44 60 62 83 98 127 293 484 293 535 0 7 7 26 16 43 49 95 83 287 83
468 0 154 -32 322 -71 371 l-19 24 -75 -80 c-42 -44 -102 -112 -134 -152 -32
-39 -80 -95 -107 -123 -49 -51 -50 -54 -56 -129 -9 -111 -49 -254 -100 -351
-89 -171 -145 -270 -157 -280 -3 -3 -17 -21 -30 -40 -13 -19 -29 -42 -37 -50
-7 -8 -36 -46 -65 -85 -28 -38 -54 -72 -57 -75 -4 -3 -19 -22 -35 -44 -106
-141 -458 -504 -674 -694 -29 -26 -74 -67 -101 -92 -26 -25 -60 -54 -76 -65
-15 -11 -64 -50 -107 -87 -44 -38 -86 -68 -94 -68 -8 0 -33 17 -57 38 -23 21
-67 56 -97 79 -30 22 -66 50 -80 63 -14 12 -52 45 -85 75 -33 29 -76 66 -95
81 -172 142 -719 730 -784 844 -6 10 -36 54 -67 97 -102 144 -220 370 -247
473 -30 114 -37 266 -18 377 17 98 69 223 115 276 79 90 116 129 137 140 12 6
47 29 78 51 89 60 181 88 311 94 261 11 431 -78 673 -353 104 -116 177 -151
271 -125 44 12 72 36 217 191 79 85 205 189 266 220 103 52 156 63 313 65
l149 1 46 51 c59 67 142 158 208 230 28 31 52 62 52 68 0 16 -210 83 -294 94
-142 19 -346 6 -431 -27 -22 -8 -62 -21 -90 -28 -59 -16 -229 -101 -300 -151
-27 -19 -80 -62 -117 -95 -37 -32 -70 -59 -74 -59 -4 0 -26 17 -49 38 -69 60
-118 98 -152 115 -17 9 -37 23 -45 30 -21 22 -195 102 -283 130 -169 56 -341
70 -515 42z"/>
<path d="M15802 9150 c-53 -22 -169 -137 -357 -351 -22 -26 -87 -97 -144 -160
-58 -63 -145 -159 -195 -214 -50 -55 -116 -127 -147 -160 -66 -72 -297 -329
-342 -381 -71 -83 -194 -220 -232 -259 -22 -23 -62 -67 -90 -98 -27 -32 -68
-77 -90 -100 -22 -23 -56 -61 -75 -84 -19 -24 -39 -43 -45 -43 -5 0 -46 38
-90 84 -44 47 -154 162 -245 258 -284 298 -291 305 -335 312 -84 14 -107 14
-140 3 -39 -14 -110 -70 -126 -99 -13 -24 -39 -122 -39 -147 0 -25 48 -110 80
-142 14 -14 97 -101 185 -195 150 -159 405 -423 523 -542 64 -64 120 -92 187
-92 92 0 134 30 300 215 44 49 148 162 230 250 144 155 216 235 321 356 89
103 248 282 314 354 36 39 103 116 150 170 47 55 110 126 141 159 93 100 174
189 210 230 41 47 132 147 211 231 32 33 71 82 88 108 26 41 30 57 30 116 0
61 -4 75 -32 119 -43 65 -101 102 -170 108 -29 2 -63 -1 -76 -6z"/>
</g>
</svg>